{"title":"Venom 2018 720p HD-TS Hindi Dubbed x264 [MW]","magnet":"magnet:?xt=urn:btih:06c6522d4f746f3fa988a2ae8ee594426f5b41a5&dn=Venom+2018+720p+HD-TS+Hindi+Dubbed+x264+%5BMW%5D&tr=udp%3A%2F%2Ftracker.leechers-paradise.org%3A6969&tr=udp%3A%2F%2Fzer0day.ch%3A1337&tr=udp%3A%2F%2Fopen.demonii.com%3A1337&tr=udp%3A%2F%2Ftracker.coppersurfer.tk%3A6969&tr=udp%3A%2F%2Fexodus.desync.com%3A6969","uploader":"MFreaky","categoryP":"video","categoryS":"movies","size":"1126607489","seeders":"122","leechers":"199","description":" <a href=\"https://pichub.site/image/EbvAv\" rel=\"nofollow\" target=\"_NEW\">https://pichub.site/image/EbvAv</a> <a href=\"\nhttps://pichub.site/image/EbUIQ\" rel=\"nofollow\" target=\"_NEW\">\nhttps://pichub.site/image/EbUIQ</a> <a href=\"\nhttps://pichub.site/image/Ebx6d\" rel=\"nofollow\" target=\"_NEW\">\nhttps://pichub.site/image/Ebx6d</a> <a href=\"\nhttps://pichub.site/image/EbL49\" rel=\"nofollow\" target=\"_NEW\">\nhttps://pichub.site/image/EbL49</a> <a href=\"\nhttps://pichub.site/image/EbrCu\" rel=\"nofollow\" target=\"_NEW\">\nhttps://pichub.site/image/EbrCu</a> <a href=\"\nhttps://pichub.site/image/EbpQs\" rel=\"nofollow\" target=\"_NEW\">\nhttps://pichub.site/image/EbpQs</a>\r\n\r\nIMDB <a href=\"\nhttps://www.imdb.com/title/tt1270797/\" rel=\"nofollow\" target=\"_NEW\">\nhttps://www.imdb.com/title/tt1270797/</a>\r\n\r\nVideo\r\nFormat                                   : AVC\r\nFormat/Info                              : Advanced Video Codec\r\nFormat profile                           : High@L4.1\r\nFormat settings                          : CABAC / 4 Ref Frames\r\nFormat settings, CABAC                   : Yes\r\nFormat settings, RefFrames               : 4 frames\r\nCodec ID                                 : V_MPEG4/ISO/AVC\r\nDuration                                 : 1 h 32 min\r\nBit rate                                 : 1 500 kb/s\r\nWidth                                    : 1 280 pixels\r\nHeight                                   : 544 pixels\r\nDisplay aspect ratio                     : 2.35:1\r\nFrame rate mode                          : Constant\r\nFrame rate                               : 23.976 (24000/1001) FPS\r\nColor space                              : YUV\r\nChroma subsampling                       : 4:2:0\r\nBit depth                                : 8 bits\r\nBits/(Pixel*Frame)                       : 0.090\r\nStream size                              : 989 MiB (92%)\r\nWriting library                          : x264 core 155 r2901 7d0ff22\r\n\r\nAudio\r\nFormat                                   : AAC\r\nFormat/Info                              : Advanced Audio Codec\r\nFormat profile                           : LC\r\nCodec ID                                 : A_AAC-2\r\nDuration                                 : 1 h 31 min\r\nBit rate                                 : 128 kb/s\r\nChannel(s)                               : 2 channels\r\nChannel positions                        : Front: L R\r\nSampling rate                            : 48.0 kHz\r\nFrame rate                               : 46.875 FPS (1024 SPF)\r\nStream size                              : 84.3 MiB (8%)\r\nLanguage                                 : Hindi","last_updated":"2018-10-06T12:16:44.809Z","parsed":{"xt":"urn:btih:06c6522d4f746f3fa988a2ae8ee594426f5b41a5","dn":"Venom 2018 720p HD-TS Hindi Dubbed x264 [MW]","tr":["udp://exodus.desync.com:6969","udp://open.demonii.com:1337","udp://tracker.coppersurfer.tk:6969","udp://tracker.leechers-paradise.org:6969","udp://zer0day.ch:1337"],"infoHash":"06c6522d4f746f3fa988a2ae8ee594426f5b41a5","infoHashBuffer":{"type":"Buffer","data":[6,198,82,45,79,116,111,63,169,136,162,174,142,229,148,66,111,91,65,165]},"name":"Venom 2018 720p HD-TS Hindi Dubbed x264 [MW]","announce":["udp://exodus.desync.com:6969","udp://open.demonii.com:1337","udp://tracker.coppersurfer.tk:6969","udp://tracker.leechers-paradise.org:6969","udp://zer0day.ch:1337"],"urlList":[]}}